<svg width="28" height="28" viewBox="0 0 28 28" fill="none" xmlns="http://www.w3.org/2000/svg">
<g clip-path="url(#clip0_217_18907)">
<path fill-rule="evenodd" clip-rule="evenodd" d="M14 28C21.732 28 28 21.732 28 14C28 6.26801 21.732 0 14 0C6.26801 0 0 6.26801 0 14C0 21.732 6.26801 28 14 28Z" fill="#79FF39"/>
<path fill-rule="evenodd" clip-rule="evenodd" d="M14 5.08643L17.556 10.6318L14 16.1931L10.444 10.6318L14 5.08643Z" fill="black"/>
<path d="M25.2467 14.0035C25.2467 14.0023 25.2467 14.001 25.2467 13.9998H25.2466C25.2441 13.7056 25.0049 13.4678 24.71 13.4678C24.4152 13.4678 24.176 13.7056 24.1735 13.9998H24.1734C24.1734 19.6183 19.6186 24.1731 14 24.1731C8.38145 24.1731 3.82669 19.6183 3.82669 13.9998H3.8266C3.82408 13.7056 3.58486 13.4678 3.29002 13.4678C2.99518 13.4678 2.75597 13.7056 2.75345 13.9998H2.75336C2.75336 14.001 2.75336 14.0023 2.75336 14.0035C2.75336 14.0038 2.75336 14.0042 2.75336 14.0044C2.75336 14.005 2.75336 14.0055 2.75336 14.006C2.75672 20.2145 7.79074 25.2464 14 25.2464C20.2093 25.2464 25.2433 20.2145 25.2467 14.006C25.2467 14.0055 25.2467 14.005 25.2467 14.0044C25.2467 14.0042 25.2467 14.0038 25.2467 14.0035Z" fill="black"/>
</g>
<defs>
<clipPath id="clip0_217_18907">
<rect width="28" height="28" fill="white"/>
</clipPath>
</defs>
</svg>
